<svg width="30" height="24" viewBox="0 0 30 24" fill="none" xmlns="http://www.w3.org/2000/svg">
<g clip-path="url(#clip0_579_2)">
<path fill-rule="evenodd" clip-rule="evenodd" d="M1.66667 -0.0170898C0.7462 -0.0170898 0 0.751528 0 1.69965C0 2.64777 0.7462 3.41639 1.66667 3.41639H28.3333C29.2538 3.41639 30 2.64777 30 1.69965C30 0.751528 29.2538 -0.0170898 28.3333 -0.0170898H1.66667ZM0 12.0001C0 11.0519 0.7462 10.2833 1.66667 10.2833H28.3333C29.2538 10.2833 30 11.0519 30 12.0001C30 12.9482 29.2538 13.7168 28.3333 13.7168H1.66667C0.7462 13.7168 0 12.9482 0 12.0001ZM0 22.3005C0 21.3524 0.7462 20.5838 1.66667 20.5838H28.3333C29.2538 20.5838 30 21.3524 30 22.3005C30 23.2487 29.2538 24.0172 28.3333 24.0172H1.66667C0.7462 24.0172 0 23.2487 0 22.3005Z" fill="white"/>
</g>
<defs>
<clipPath id="clip0_579_2">
<rect width="30" height="24" fill="white"/>
</clipPath>
</defs>
</svg>
