<svg width="60" height="60" viewBox="0 0 60 60" fill="none" xmlns="http://www.w3.org/2000/svg">
<path d="M34.2744 31.258C33.7684 30.7585 33.1368 30.7585 32.634 31.258C32.2505 31.6383 31.867 32.0186 31.49 32.4053C31.3869 32.5116 31.2999 32.5342 31.1742 32.4633C30.926 32.3279 30.6618 32.2184 30.4233 32.0701C29.3115 31.3708 28.3801 30.4717 27.5551 29.4598C27.1458 28.957 26.7817 28.4188 26.5271 27.813C26.4755 27.6905 26.4852 27.6099 26.5851 27.51C26.9686 27.1394 27.3424 26.7592 27.7195 26.3789C28.2448 25.8504 28.2448 25.2316 27.7163 24.6999C27.4165 24.3969 27.1168 24.1005 26.8171 23.7975C26.5078 23.4882 26.2016 23.1756 25.889 22.8694C25.383 22.3763 24.7514 22.3763 24.2487 22.8726C23.8619 23.2529 23.4913 23.6428 23.0982 24.0167C22.734 24.3615 22.5503 24.7837 22.5117 25.2767C22.4504 26.0792 22.647 26.8365 22.9242 27.5745C23.4913 29.102 24.355 30.4588 25.4024 31.7027C26.8171 33.385 28.5058 34.7159 30.4813 35.6763C31.3708 36.1081 32.2924 36.44 33.2947 36.4948C33.9843 36.5335 34.5838 36.3595 35.0639 35.8213C35.3926 35.4539 35.7633 35.1188 36.1113 34.7675C36.6269 34.2454 36.6301 33.6138 36.1177 33.0981C35.5054 32.4826 34.8899 31.8703 34.2744 31.258Z" fill="#929AA2"/>
</svg>
